<?xml version="1.0" encoding="iso-8859-1"?>
<!-- Generator: Adobe Illustrator 16.0.0, SVG Export Plug-In . SVG Version: 6.00 Build 0)  -->
<!DOCTYPE svg PUBLIC "-//W3C//DTD SVG 1.1//EN" "http://www.w3.org/Graphics/SVG/1.1/DTD/svg11.dtd">
<svg version="1.1" id="Capa_1" xmlns="http://www.w3.org/2000/svg" xmlns:xlink="http://www.w3.org/1999/xlink" x="0px" y="0px"
	 width="97.285px" height="97.285px" viewBox="0 0 97.285 97.285" style="enable-background:new 0 0 97.285 97.285;"
	 xml:space="preserve">
<g>
	<path d="M83.952,34.479L50.056,0.585c-0.781-0.781-2.047-0.781-2.828,0L13.333,34.479c-0.781,0.781-0.781,2.047,0,2.828l9.03,9.031
		c0.375,0.375,0.883,0.586,1.414,0.586c0.53,0,1.039-0.211,1.414-0.586l14.534-14.532v63.478c0,1.104,0.896,2,2,2H55.56
		c1.104,0,2-0.896,2-2V31.807l14.532,14.532c0.75,0.75,2.078,0.75,2.828,0l9.031-9.031c0.375-0.375,0.586-0.884,0.586-1.414
		C84.538,35.364,84.327,34.854,83.952,34.479z"/>
</g>
<g>
</g>
<g>
</g>
<g>
</g>
<g>
</g>
<g>
</g>
<g>
</g>
<g>
</g>
<g>
</g>
<g>
</g>
<g>
</g>
<g>
</g>
<g>
</g>
<g>
</g>
<g>
</g>
<g>
</g>
</svg>
